<?xml version="1.0" encoding="UTF-8"?>
<svg xmlns="http://www.w3.org/2000/svg" viewBox="0 0 1200 1140" role="img" aria-labelledby="title desc">
  <title id="title">Lago di Carezza offline trail map</title>
  <desc id="desc">A locally rendered OpenStreetMap basemap with the Lago di Carezza route, lake, surrounding paths, roads, parking and useful points.</desc>
  <defs>
    <filter id="route-shadow" x="-30%" y="-30%" width="160%" height="160%"><feDropShadow dx="0" dy="3" stdDeviation="4" flood-color="#1d2d25" flood-opacity=".35"/></filter>
  </defs>
  <style>
    .forest{fill:#cbdcc5;stroke:#b7cbb2;stroke-width:1.5}.scrub{fill:#d8e4d0;stroke:#c5d5be;stroke-width:1.2}.meadow{fill:#e4ebce;stroke:#d5dfbd;stroke-width:1.2}
    .water{fill:#acd4df;stroke:#70a9ba;stroke-width:4}.parking{fill:#deddd8;stroke:#aaa9a4;stroke-width:2}.building{fill:#c8b9aa;stroke:#9c8878;stroke-width:2}
    .stream{fill:none;stroke:#72b3c5;stroke-width:4;stroke-linecap:round}.road-casing{fill:none;stroke:#fff;stroke-width:22;stroke-linecap:round;stroke-linejoin:round}.road{fill:none;stroke:#d9b982;stroke-width:15;stroke-linecap:round;stroke-linejoin:round}
    .service-casing{stroke-width:13}.service{stroke:#e6d8ba;stroke-width:8}.track{fill:none;stroke:#b39363;stroke-width:5;stroke-dasharray:12 7;stroke-linecap:round}.footpath{fill:none;stroke:#8c7458;stroke-width:4;stroke-dasharray:7 6;stroke-linecap:round}.steps{stroke:#78624d;stroke-dasharray:3 4}.barrier{fill:none;stroke:#777;stroke-width:2;stroke-dasharray:3 4}
    .route-casing{fill:none;stroke:#fff;stroke-width:18;stroke-linecap:round;stroke-linejoin:round;filter:url(#route-shadow)}.route{fill:none;stroke:#b84931;stroke-width:10;stroke-linecap:round;stroke-linejoin:round}
    .feature-label{font:700 23px Arial,sans-serif;fill:#294239;text-anchor:middle;paint-order:stroke;stroke:#f5f2e9;stroke-width:6;stroke-linejoin:round}.parking-label{font-size:16px}
    .poi circle,.poi rect{fill:#fff;stroke:#294239;stroke-width:4}.poi text{font:800 16px Arial,sans-serif;fill:#294239;text-anchor:middle}.water-point circle{fill:#3e7a91}.water-point path{fill:#fff}.utility text{font-size:10px}.viewpoint circle:first-child{fill:#fff}.viewpoint circle:last-child{fill:#294239;stroke:none}
    .map-text{font-family:Arial,sans-serif;fill:#294239}.small{font-size:16px}.attribution{font-size:15px;fill:#fff}.north{font-size:20px;font-weight:800}.scale{font-size:14px;font-weight:700}
  </style>
  <rect width="1200" height="1140" fill="#eef1e7"/>
  <g id="land"><path class="building" d="M730.5 175.8 L732.0 183.1 L745.8 188.6 L746.3 204.8 L708.5 198.0 L683.7 125.9 L708.6 116.2 L721.9 130.5 L729.4 170.2 L730.5 175.8 Z"/><path class="building" d="M670.3 62.5 L701.6 42.2 L732.3 46.1 L758.1 85.8 L756.4 96.6 L767.4 111.3 L743.0 130.9 L670.3 62.5 Z"/><path class="building" d="M703.7 112.0 L688.1 93.1 L679.9 100.0 L687.7 118.1 L703.7 112.0 Z"/><path class="building" d="M662.5 56.4 L668.9 61.0 L667.2 68.4 L663.8 72.5 L679.9 100.0 L687.7 118.1 L703.7 112.0 L708.6 116.2 L683.7 125.9 L648.6 64.0 L652.7 61.8 L662.5 56.4 Z"/><path class="building" d="M667.2 68.4 L688.1 93.1 L679.9 100.0 L663.8 72.5 L667.2 68.4 Z"/><path class="meadow" d="M1065.5 315.3 L1086.9 274.2 L1109.8 278.6 L1139.6 287.4 L1200.5 293.8 L1209.8 367.8 L1245.4 443.3 L1221.0 484.0 L1197.1 483.5 L1168.1 470.4 L1151.3 442.3 L1127.9 359.0 L1065.5 315.3 Z"/><path class="scrub" d="M396.9 1040.4 L363.8 1091.4 L442.8 1167.9 L609.6 1089.5 L673.9 1090.4 L755.9 1073.8 L812.4 1125.8 L881.7 1132.6 L849.5 1017.9 L845.6 936.5 L794.9 932.6 L756.9 966.9 L716.9 985.5 L637.9 1048.3 L582.3 1009.1 L496.4 1001.2 L396.9 1040.4 Z"/><path class="forest" d="M85.9 -109.2 L58.5 -64.7 L59.7 -14.5 L51.7 22.0 L54.5 44.4 L58.9 108.4 L65.6 162.4 L75.6 204.9 L57.8 233.0 L45.6 253.5 L48.9 286.2 L88.3 328.0 L106.1 367.9 L123.3 447.0 L134.0 485.0 L187.2 524.1 L171.7 473.3 L186.1 464.3 L221.0 484.2 L228.6 461.8 L225.0 444.5 L234.4 418.5 L238.1 371.1 L281.2 355.3 L323.2 305.3 L331.7 269.4 L278.9 191.3 L246.3 154.5 L275.8 131.1 L252.5 109.2 L262.6 71.0 L280.3 35.1 L303.6 -20.1 L238.1 -99.1 L162.1 -120.9 L85.9 -109.2 Z"/><path class="water" d="M674.5 616.7 L680.1 564.6 L676.0 543.1 L677.1 527.5 L683.0 512.5 L678.9 492.8 L672.5 470.7 L677.7 450.7 L693.3 434.2 L709.9 413.9 L715.2 397.1 L705.0 388.0 L671.3 388.6 L648.2 393.0 L615.7 405.7 L596.9 414.5 L576.1 430.7 L552.7 443.0 L529.6 457.2 L513.5 470.7 L498.8 491.9 L478.3 515.8 L474.8 530.8 L489.5 550.8 L504.4 572.6 L512.9 586.7 L536.3 596.1 L561.8 597.6 L590.5 600.8 L613.3 606.4 L630.3 612.0 L647.3 616.7 L657.8 620.8 L674.5 616.7 Z"/></g>
  <g id="waterways"><path class="stream" d="M278.1 606.0 L245.2 604.0 L214.7 590.1 L198.2 543.5 L173.8 496.3"/><path class="stream" d="M173.8 496.3 L118.2 397.3"/><path class="stream" d="M118.2 397.3 L-48.5 119.0 L-43.8 -4.8 L-54.5 -54.3 L-70.8 -87.8 L-70.6 -109.8 L-52.5 -163.2 L-38.4 -223.0 L-54.0 -270.1 L-91.1 -315.7 L-142.3 -352.4 L-164.7 -382.8 L-177.4 -413.2 L-160.8 -458.3 L-159.3 -478.9 L-172.0 -497.6 L-196.9 -511.3 L-225.6 -571.1 L-706.8 -936.4 L-794.3 -955.5 L-820.5 -968.0 L-841.2 -971.9 L-852.0 -989.1 L-874.3 -993.7 L-924.9 -995.3 L-971.8 -1026.2 L-1003.0 -1041.4 L-1028.9 -1063.8"/></g>
  <g id="roads"><path class="road-casing service-casing" d="M689.0 219.8 L686.9 211.7 L683.7 174.3 L676.5 144.7 L667.2 122.9 L645.1 79.7 L631.6 55.8 L626.0 43.0"/><path class="road service" d="M689.0 219.8 L686.9 211.7 L683.7 174.3 L676.5 144.7 L667.2 122.9 L645.1 79.7 L631.6 55.8 L626.0 43.0"/><path class="road-casing" d="M51.4 434.4 L-14.5 361.5 L-144.5 216.5 L-212.6 148.3"/><path class="road primary" d="M51.4 434.4 L-14.5 361.5 L-144.5 216.5 L-212.6 148.3"/><path class="road-casing" d="M1246.7 2.7 L1211.9 -23.5 L1195.7 -33.9 L1178.3 -39.6 L1158.9 -40.0 L1148.5 -35.9 L1137.4 -28.5 L1128.5 -16.5 L1123.6 2.9 L1125.3 23.4 L1147.1 81.9 L1155.1 105.9 L1161.5 131.2 L1186.0 323.2 L1191.1 349.6 L1198.7 376.2 L1222.4 429.5 L1225.3 443.0 L1222.9 455.2 L1215.1 464.9 L1206.1 469.2 L1199.4 469.1 L1193.1 468.0 L1186.3 465.9 L1181.0 461.5 L1175.5 451.7 L1172.2 440.1 L1167.7 414.5 L1161.3 391.9 L1150.3 364.6 L1138.6 348.8 L1125.5 336.8 L1059.4 292.0 L994.5 250.6 L957.3 228.5 L940.3 221.8 L927.7 219.5 L917.6 218.2"/><path class="road primary" d="M1246.7 2.7 L1211.9 -23.5 L1195.7 -33.9 L1178.3 -39.6 L1158.9 -40.0 L1148.5 -35.9 L1137.4 -28.5 L1128.5 -16.5 L1123.6 2.9 L1125.3 23.4 L1147.1 81.9 L1155.1 105.9 L1161.5 131.2 L1186.0 323.2 L1191.1 349.6 L1198.7 376.2 L1222.4 429.5 L1225.3 443.0 L1222.9 455.2 L1215.1 464.9 L1206.1 469.2 L1199.4 469.1 L1193.1 468.0 L1186.3 465.9 L1181.0 461.5 L1175.5 451.7 L1172.2 440.1 L1167.7 414.5 L1161.3 391.9 L1150.3 364.6 L1138.6 348.8 L1125.5 336.8 L1059.4 292.0 L994.5 250.6 L957.3 228.5 L940.3 221.8 L927.7 219.5 L917.6 218.2"/><path class="road-casing" d="M209.1 563.0 L190.6 558.0 L166.9 547.3"/><path class="road primary" d="M209.1 563.0 L190.6 558.0 L166.9 547.3"/><path class="road-casing service-casing" d="M626.0 43.0 L608.5 7.4 L609.3 -51.4 L609.3 -90.8"/><path class="road service" d="M626.0 43.0 L608.5 7.4 L609.3 -51.4 L609.3 -90.8"/><path class="road-casing" d="M516.5 322.8 L428.2 403.0 L396.0 437.4 L330.7 526.8 L301.6 548.1 L271.0 561.4 L242.9 566.0 L209.1 563.0"/><path class="road primary" d="M516.5 322.8 L428.2 403.0 L396.0 437.4 L330.7 526.8 L301.6 548.1 L271.0 561.4 L242.9 566.0 L209.1 563.0"/><path class="road-casing" d="M689.0 219.8 L672.3 228.0 L656.8 235.7 L605.8 267.8 L543.6 303.4 L516.5 322.8"/><path class="road primary" d="M689.0 219.8 L672.3 228.0 L656.8 235.7 L605.8 267.8 L543.6 303.4 L516.5 322.8"/><path class="road-casing" d="M917.6 218.2 L847.1 219.1 L767.3 215.0 L729.3 213.4 L709.6 214.3 L689.0 219.8"/><path class="road primary" d="M917.6 218.2 L847.1 219.1 L767.3 215.0 L729.3 213.4 L709.6 214.3 L689.0 219.8"/><path class="road-casing" d="M166.9 547.3 L142.3 530.2 L116.6 506.0 L51.4 434.4"/><path class="road primary" d="M166.9 547.3 L142.3 530.2 L116.6 506.0 L51.4 434.4"/></g>
  <g id="paths"><path class="footpath" d="M188.2 576.1 L215.8 578.6 L245.2 579.2 L267.5 575.5 L288.0 570.0 L328.6 549.3 L366.3 520.8 L407.8 459.3 L438.6 440.6 L458.6 415.1 L486.9 399.9 L550.1 350.6 L612.0 321.6 L645.7 308.6 L656.7 302.1 L665.3 297.0 L667.8 295.5 L680.0 287.0 L712.6 285.9 L734.7 279.9 L736.6 259.6"/><path class="footpath" d="M761.4 296.8 L753.4 260.9"/><path class="footpath" d="M636.7 813.6 L657.4 797.4 L668.1 790.8 L697.7 781.1 L724.6 770.9 L747.2 769.1 L771.7 767.4 L799.5 757.3 L811.6 746.9 L819.3 729.4 L820.6 702.6 L815.2 681.9 L814.3 654.1 L817.3 636.4 L826.0 622.6 L834.4 600.6 L870.1 613.6 L903.6 632.2 L931.0 633.8"/><path class="track" d="M164.5 771.8 L176.5 778.2 L228.5 846.5 L258.3 934.8 L281.3 959.3 L310.5 972.6 L327.2 973.5 L363.3 965.4 L378.4 967.4 L406.4 975.1 L430.7 981.1 L442.7 985.6 L450.9 992.4 L471.2 1021.4 L480.7 1027.3 L491.2 1029.7 L537.3 1020.6 L551.9 1020.6 L570.2 1027.7 L593.1 1045.0 L629.0 1081.7 L664.9 1099.6 L717.7 1150.8 L752.4 1173.0 L772.8 1180.6"/><path class="track" d="M-240.9 192.8 L-172.3 267.0 L-5.7 433.5 L29.3 457.2 L57.7 476.1 L135.0 547.4"/><path class="footpath" d="M834.4 600.6 L804.7 577.6"/><path class="track" d="M645.9 941.3 L649.1 965.3 L657.7 993.2 L673.3 1025.9 L688.9 1046.7 L697.9 1061.9 L702.1 1071.9 L705.3 1089.4 L709.4 1103.6 L719.6 1122.9 L739.1 1148.8 L757.8 1162.1 L772.8 1180.6"/><path class="track" d="M135.0 547.4 L157.3 558.7 L168.1 567.2"/><path class="track" d="M168.1 567.2 L167.5 557.7 L166.9 547.3"/><path class="track" d="M728.6 3019.1 L707.7 3022.2 L693.4 3020.5 L681.1 3014.3 L655.5 2982.5 L644.7 2961.4 L640.0 2939.1 L636.2 2921.1 L628.9 2908.8 L612.9 2906.8 L593.6 2908.0 L575.6 2903.9 L564.4 2895.8 L559.0 2884.0 L557.1 2861.8 L549.5 2807.5 L537.9 2764.0 L519.6 2715.4 L511.9 2695.6 L478.4 2630.9 L465.7 2595.8 L458.3 2545.6 L451.7 2483.9 L451.6 2433.9 L456.9 2399.3 L468.0 2361.8 L473.5 2337.5 L476.1 2306.0 L475.3 2263.8 L474.7 2203.2 L480.5 2164.2 L491.6 2112.2 L496.5 2086.5 L498.6 2064.7 L491.0 1999.3 L491.2 1981.7 L496.1 1964.8 L508.8 1934.0 L513.2 1920.7 L516.0 1904.4 L519.6 1876.6 L523.9 1857.1 L531.8 1835.2 L544.4 1809.3 L552.7 1788.9 L556.5 1772.9 L559.0 1744.9 L556.1 1719.2 L550.9 1683.4 L545.7 1642.6 L544.9 1612.6 L543.8 1585.5 L537.6 1549.9 L517.9 1503.4 L506.7 1484.7 L496.2 1472.1 L481.8 1460.2 L444.3 1435.5 L426.5 1423.5 L406.2 1404.3 L378.2 1367.1 L345.6 1319.4 L326.7 1287.8 L307.2 1249.4 L294.9 1224.1 L284.9 1197.3 L278.5 1171.4 L275.5 1146.3 L273.9 1086.8 L270.6 1062.2 L260.2 1035.7 L244.7 1006.9 L235.0 986.0 L230.7 967.9 L229.4 947.2 L229.3 922.6 L226.7 899.6 L221.9 877.7 L213.2 853.0 L196.9 826.0 L181.9 803.8 L170.1 787.5 L164.5 771.8"/><path class="footpath" d="M736.6 259.6 L730.8 241.9"/><path class="footpath steps" d="M687.9 126.4 L688.7 120.2"/><path class="footpath" d="M652.7 61.8 L645.0 48.4"/><path class="footpath" d="M730.8 241.9 L687.9 126.4 L652.7 61.8"/><path class="track" d="M772.8 1180.6 L791.1 1173.6 L800.7 1161.0 L802.1 1142.6 L793.5 1099.6 L782.5 1049.7 L784.1 1015.0 L795.7 995.4 L837.3 973.1 L866.5 957.2 L900.7 945.4 L918.7 933.0 L935.3 927.6 L959.2 928.1 L983.9 935.4 L1017.4 941.8 L1040.7 947.2 L1067.0 959.2 L1095.1 969.6 L1115.2 981.2 L1130.9 999.0 L1142.9 1019.2 L1153.9 1039.1 L1158.5 1058.7 L1167.0 1073.5 L1177.9 1085.6 L1192.3 1097.8 L1207.5 1104.9 L1222.5 1106.4 L1234.6 1104.3 L1248.7 1108.9 L1260.3 1114.0 L1272.2 1113.5 L1282.2 1106.7 L1290.3 1091.7 L1299.1 1078.3 L1308.6 1071.4 L1331.9 1063.8 L1352.9 1070.4 L1378.8 1085.6 L1389.5 1089.7 L1398.8 1089.4 L1405.6 1084.9 L1411.5 1075.5 L1413.4 1061.0"/><path class="footpath" d="M631.6 55.8 L645.0 48.4"/><path class="footpath" d="M645.0 48.4 L653.7 51.6 L701.5 99.7 L713.1 111.2 L731.2 129.2 L735.1 171.9"/><path class="track" d="M164.5 771.8 L159.4 756.5 L157.7 744.3 L158.6 734.4 L159.6 716.7"/><path class="track" d="M168.1 567.2 L170.6 639.5 L167.6 671.9 L164.1 692.2 L159.6 716.7"/><path class="footpath" d="M931.0 633.8 L950.8 622.9 L962.6 605.7 L971.7 586.2 L979.9 563.7 L991.0 546.1 L1005.4 533.6 L1016.1 518.4 L1015.4 501.9 L1009.4 488.2 L971.4 428.5 L940.5 397.7 L920.2 366.1 L912.7 344.7 L907.6 312.3 L899.9 296.6 L878.8 283.8 L834.0 277.4 L789.4 268.8 L753.4 260.9 L736.6 259.6"/><path class="track" d="M636.7 813.6 L642.6 859.8 L640.7 883.7 L642.6 911.2 L645.9 941.3"/><path class="footpath" d="M182.4 590.7 L185.3 616.6 L190.9 640.2 L194.8 667.0 L199.3 688.0 L216.6 738.1 L232.1 769.8 L247.9 797.0 L267.5 816.6 L281.7 832.5 L299.4 847.6 L320.8 859.2 L341.3 862.1 L400.7 868.9 L443.6 863.9 L480.7 832.2 L506.5 821.4 L524.8 820.2 L537.8 819.5 L567.8 826.0 L588.0 835.8 L607.6 835.9 L625.8 824.8 L636.7 813.6"/><path class="footpath" d="M713.1 111.2 L688.7 120.2"/><path class="footpath" d="M668.1 790.8 L660.4 784.3 L652.0 777.0 L647.4 767.8 L644.5 760.5 L643.5 753.4 L643.3 748.7"/><path class="footpath" d="M57.1 277.1 L41.9 122.4 L35.3 63.4 L21.4 -12.5"/><path class="footpath" d="M209.1 563.0 L199.3 532.2 L201.4 522.3 L199.3 511.6 L193.7 499.2 L185.0 489.0 L182.3 473.7 L164.9 456.9 L162.6 451.4 L151.1 442.0 L145.2 424.8 L126.4 394.4 L131.5 369.2 L130.7 358.7 L57.1 277.1"/><path class="footpath" d="M645.0 48.4 L642.5 41.3 L646.6 31.4 L638.9 7.3 L634.1 -16.1 L624.3 -64.6 L626.0 -73.3 L627.7 -82.0"/><path class="footpath" d="M182.5 574.9 L188.2 576.1"/><path class="footpath" d="M182.5 574.9 L182.4 590.7"/><path class="track" d="M182.5 574.9 L168.1 567.2"/><path class="footpath" d="M672.3 228.0 L679.7 238.9 L670.0 256.7 L660.9 266.9 L667.2 266.2 L689.5 259.9 L736.6 259.6"/><path class="footpath" d="M738.4 301.4 L763.1 305.1 L761.4 296.8"/></g>
  <g id="barriers"><path class="barrier" d="M612.2 324.8 L550.1 353.9 L489.0 403.6 L462.0 416.9 L439.8 443.2 L411.0 460.5 L369.8 524.1 L330.5 552.6 L289.9 573.6 L246.0 585.1 L204.1 580.8 L189.4 583.9 L187.2 592.2 L196.1 642.6 L199.1 667.2 L220.1 735.6 L240.3 776.0 L249.0 791.3 L263.1 805.9 L283.6 828.7 L301.1 843.7 L323.2 851.9 L398.8 861.8 L440.9 857.6 L491.1 812.0 L506.8 808.3 L568.9 809.4 L603.6 821.9 L618.6 818.9 L633.1 808.4 L649.1 797.0 L640.8 794.0 L635.6 786.9 L631.2 765.4 L627.5 746.3 L670.1 746.2 L717.4 742.2 L733.4 751.3 L754.6 756.5 L771.2 756.2 L787.8 751.4 L801.5 743.2 L808.8 728.5 L805.5 682.5 L800.5 662.4 L799.3 642.4 L809.2 607.9 L806.5 590.8 L802.8 579.2 L806.9 573.3 L817.2 572.1 L830.6 584.2 L876.3 605.9 L906.0 624.4 L928.8 625.7 L967.0 542.7 L1005.7 511.9 L991.0 475.0 L969.0 436.1 L935.7 400.0 L914.6 366.8 L898.0 299.9 L877.5 287.1 L834.4 280.7 L789.1 272.7 L760.4 265.9 L776.7 317.7 L722.6 305.1 L732.7 291.7 L757.0 294.1 L749.7 263.0 L738.3 262.3 L736.4 283.2 L710.7 289.0 L680.8 290.7 L643.7 313.6 L612.2 324.8"/><path class="barrier" d="M729.4 170.2 L743.4 176.4 L743.0 130.9"/><path class="barrier" d="M657.2 270.2 L687.4 264.0 L704.5 263.9 L719.7 262.5 L732.2 263.9 L731.8 270.0 L728.4 278.1 L713.8 282.6"/><path class="barrier" d="M668.0 263.0 L677.4 249.9 L682.3 234.6"/><path class="barrier" d="M533.8 319.4 L590.0 292.7 L623.1 281.7 L646.8 267.4 L657.4 262.9 L675.9 239.1"/><path class="barrier" d="M788.0 224.9 L765.5 223.4 L733.1 221.9 L704.7 225.4 L683.6 232.1"/><path class="barrier" d="M998.4 262.4 L974.8 244.1 L958.7 234.4 L942.4 228.6 L916.2 225.3 L904.9 225.5"/><path class="barrier" d="M528.3 322.4 L419.6 422.0 L407.6 436.1 L387.4 463.7 L361.0 498.4 L339.6 530.7 L316.0 550.8 L295.5 562.6 L273.6 571.0 L260.0 574.5 L246.1 576.6 L231.8 576.5 L218.1 574.5 L194.1 567.2 L183.1 562.1 L179.5 561.9 L168.1 567.2"/></g>
  <g id="labels"><g class="poi viewpoint" transform="translate(804.7 577.6)"><circle r="8"/><circle r="3"/></g><g class="poi viewpoint" transform="translate(635.5 746.1)"><circle r="8"/><circle r="3"/></g><g class="poi water-point" transform="translate(696.2 94.9)"><circle r="13"/><path d="M-3-7C5-1 6 4 0 9-6 4-5-1-3-7Z"/></g><g class="poi viewpoint" transform="translate(732.3 303.6)"><circle r="8"/><circle r="3"/></g><g class="poi viewpoint" transform="translate(768.0 311.6)"><circle r="8"/><circle r="3"/></g></g>
  <g class="map-text" transform="translate(609.1 543.5)" text-anchor="middle"><text class="feature-label" y="0">Lago di Carezza</text><text class="small" y="26">Karersee</text></g>
  <path class="route-casing" d="M736.4 259.8 L734.5 281.0 L680.0 286.3 L550.9 350.0 L458.2 416.2 L407.3 458.7 L365.5 519.6 L329.1 548.8 L267.3 575.3 L181.8 575.3 L194.5 668.1 L216.4 737.0 L247.3 798.0 L300.0 848.4 L400.0 869.6 L443.6 864.3 L507.3 821.9 L607.3 835.1 L667.3 790.0 L800.0 758.2 L820.0 729.1 L814.5 654.8 L834.5 601.8 L903.6 631.0 L950.9 623.0 L980.0 564.7 L1016.4 519.6 L1014.5 501.1 L970.9 429.5 L920.0 365.9 L900.0 296.9 L878.2 283.7 L736.4 259.8"/><path class="route" d="M736.4 259.8 L734.5 281.0 L680.0 286.3 L550.9 350.0 L458.2 416.2 L407.3 458.7 L365.5 519.6 L329.1 548.8 L267.3 575.3 L181.8 575.3 L194.5 668.1 L216.4 737.0 L247.3 798.0 L300.0 848.4 L400.0 869.6 L443.6 864.3 L507.3 821.9 L607.3 835.1 L667.3 790.0 L800.0 758.2 L820.0 729.1 L814.5 654.8 L834.5 601.8 L903.6 631.0 L950.9 623.0 L980.0 564.7 L1016.4 519.6 L1014.5 501.1 L970.9 429.5 L920.0 365.9 L900.0 296.9 L878.2 283.7 L736.4 259.8"/>
  <g transform="translate(736.4 259.8)"><circle r="22" fill="#294239" stroke="#fff" stroke-width="6"/><path d="M0-11 7 7 0 3-7 7Z" fill="#fff"/></g>
  <g class="map-text" transform="translate(1125 82)" text-anchor="middle"><path d="M0-45 16 8 0-2-16 8Z" fill="#294239"/><text class="north" y="34">N</text></g>
  <g class="map-text" transform="translate(55 1060)"><path d="M0 0H236.9M0-8V8M236.9-8V8" fill="none" stroke="#294239" stroke-width="5"/><text class="scale" x="118.4" y="27" text-anchor="middle">100 m</text></g>
  <rect x="670" y="1084" width="510" height="42" rx="10" fill="#294239" opacity=".94"/>
  <text class="map-text attribution" x="1160" y="1111" text-anchor="end">© OpenStreetMap contributors · ODbL</text>
</svg>
